<?xml version="1.0" encoding="UTF-8"?><svg id="a" xmlns="http://www.w3.org/2000/svg" xmlns:xlink="http://www.w3.org/1999/xlink" viewBox="0 0 544.47 544.47"><defs><style>.d{fill:#fff;fill-rule:evenodd;}.e{filter:url(#b);}.f{fill:#050505;}</style><filter id="b" filterUnits="userSpaceOnUse"><feOffset dx="7" dy="7"/><feGaussianBlur result="c" stdDeviation="5"/><feFlood flood-color="#000" flood-opacity=".1"/><feComposite in2="c" operator="in"/><feComposite in="SourceGraphic"/></filter></defs><g class="e"><path class="f" d="M389.87,259.19c0,64.41-55.5,116.62-123.97,116.62-12.2,0-23.98-1.66-35.11-4.74l-44.02,24.51,.28-46.4c-27.56-21.39-45.12-53.76-45.12-89.99,0-64.41,55.51-116.63,123.97-116.63s123.97,52.22,123.97,116.63Z"/></g><path class="d" d="M281.19,247.14c1.35-.3,2.67,.43,2.93,1.63,.27,1.2-.61,2.43-1.95,2.73-1.35,.31-2.66-.43-2.93-1.63-.27-1.2,.61-2.43,1.95-2.73h0Zm-10.6,1.2c2.22-.5,4.39,.71,4.83,2.69,.45,1.98-1,4-3.22,4.5-2.22,.5-4.39-.71-4.83-2.69-.44-1.98,1-4,3.22-4.5h0Zm-8.53-.35l2.18,9.02s1.48,2.54,3.34,2.12c1.87-.42,20-5.1,20-5.1,0,0,.82-4.41-1.75-3.08-2.57,1.33-6.71,2.41-7.46-.29-.76-2.7,1.67-4,2.96-4.29,1.3-.29,4.58,1.54,5.53-.94,.95-2.48,2.46-11.88,2.46-11.88l-1.93,.13-1.63,8.22-.93-.09,1.27-8.44-2.84,.79-.19,6.54s-.48,1.92-1.48,2.14c-1,.23-15.98,3.44-15.98,3.44,0,0-3.23,.42-3.54,1.7h0Zm2.79,25.19c2.08,1.19,1.82-1.31,1.82-1.31l-1.27-5s-2.16-9.63-3.55-14.45c-1.39-4.82-3.1-6.4-3.1-6.4l-3.57-4.48-1.98,.6s3.06,3.54,4.28,4.93c1.22,1.39,1.59,3.72,1.59,3.72l5.79,22.4h0Zm-1.91-2.44s1.27,3.64-1.57,4.43c-2.84,.79-14.79,1.36-14.79,1.36l.1-2.89,12.03-.89,.46-1.31-12.7,.59-.09-2.4,13.12-.08-.42-1.87-13.34,.43,.2-2.46,12.73-.45-.61-1.37-12.49,.84-.07-3,10.08-1.51-.4-1.12-10,1.19-.66-2.27,9.71-1.13-.69-1.05-9.41,.45-1.01-2.49,9.17-.85-.71-1.8-8.96,1.11s-2.78-6.32-4.48-7.15c-1.69-.83,2.57-1.33,2.57-1.33l4.49,5.18,1.73-.39-4.78-5.12,3.44-.17,3.67,4.91,1.76-.25-4.52-5.33,2.4-.09,4.16,5.11,1.47-.18-4.17-5.11,1.76-.24s3.65,4.16,4.4,5.5c.76,1.34,3.4,9.05,4.27,12.93,.87,3.88,2.15,10.24,2.15,10.24h0Zm3.66,14.28l3.21-1.18,4.99,20.17-1.83,6-3.11,.25,1.55-6.54-4.81-18.7h0Zm-64.89,14.28c-.22,.35,.13,1.93,.13,1.93l8.42,.52-.25,1.57-15.68-.55-.43,2.82s48.07,.22,51.58-.27c3.51-.49,4.48-4.93,4.48-4.93l1.35-10.12,9.77-2.2,.08,1.04-8.8,1.82,.33,2.8,9.42-2.42,.32,1.44-9.17,2.21-.12,2.14,9.71-2.48,.36,1.58-9.06,2.03,.81,3.59,9.5-2.74,.42,1.87-9.88,2.37-6.64,10.1,4.15-.33,3-7.47,.93,.09-3,7.47,3.19-.57,2.64-7.08,1.1,.21-2.35,7.02,3.05-.53,2.3-6.56,1.18-.11-2.01,6.49,2.27-.66,1.98-5.28,1.33-.15-1.79,4.78,2.19-.34,1.47-6.22-5.3-18.89s-13.16,1.9-14.85,2.43c-1.69,.53-2.14,2.59-2.14,2.59,0,0-1.75,7.64-2.28,10.02-.52,2.38-5.11,1.45-5.11,1.45l-38.61-2.5h0Zm41.68-10.73s2.25-.05,3.24,.33c.99,.38-.46,1.31-.46,1.31,0,0-1.28,5.72-1.42,7.11-.14,1.39-1.59,2.32-2.46,2.51-.86,.19-37.54-2.43-40.61-2.65-3.07-.22-5.07-.37-5.07-.37,0,0-.15-1.32,.78-2.59,.93-1.27,1.05-.69,3.08-.39,2.03,.3,16.21,2.25,19.1,2.35,2.9,.11,1.31-.89,1.31-.89l-5.72-1.28,1.05-2.05s21.29,3.37,23.53,3.92c2.24,.56,2.81-2.29,2.81-2.29l.83-5.02h0Zm-52.39-10.51l-2.28,11.33,2.84-.25,2.22-10.74-2.78-.34h0Zm38.59,2.34l2.37,.24-.62,4.97-2.33-.06,.58-5.16h0Zm-4.83-.29c.81,.08,1.62,.16,2.43,.25-.28,1.89-.55,3.79-.82,5.69-.8,0-1.59-.01-2.39-.02,.27-1.98,.53-3.95,.79-5.92h0Zm-4.82-.29c.82,.09,1.65,.17,2.48,.26-.34,2.14-.68,4.28-1.03,6.41-.82,0-1.64,.01-2.46,.02,.34-2.23,.67-4.47,1.01-6.7h0Zm-4.83-.3c.84,.1,1.69,.19,2.53,.28-.41,2.38-.82,4.76-1.23,7.14-.84,.02-1.68,.04-2.52,.06,.41-2.49,.81-4.98,1.22-7.47h0Zm-4.82-.29c.86,.1,1.72,.2,2.58,.29-.48,2.62-.95,5.24-1.42,7.86-.86,.04-1.72,.07-2.58,.1,.48-2.75,.96-5.5,1.43-8.25h0Zm-4.83-.29c-.55,3.01-1.09,6.01-1.64,9.02,.88-.05,1.77-.09,2.65-.14,.54-2.86,1.08-5.72,1.62-8.58-.88-.1-1.75-.2-2.63-.3h0Zm-4.82-.29c.89,.1,1.79,.21,2.68,.31-.61,3.1-1.22,6.2-1.82,9.3-.91,.06-1.81,.11-2.71,.18,.62-3.26,1.24-6.53,1.86-9.79h0Zm-4.83-.29c.91,.11,1.82,.22,2.73,.33-.67,3.34-1.35,6.68-2.02,10.02-.93,.07-1.85,.14-2.78,.21,.69-3.52,1.38-7.04,2.07-10.56h0Zm100.2-38.59c1.13-.26,2.25,.41,2.49,1.48,.24,1.07-.48,2.15-1.62,2.41-1.13,.26-2.25-.41-2.49-1.48-.24-1.07,.48-2.15,1.61-2.41h0Zm-.35-1.56c2.03-.46,4.05,.74,4.48,2.67,.43,1.93-.87,3.88-2.91,4.33-2.03,.46-4.05-.74-4.48-2.67-.43-1.93,.87-3.88,2.91-4.33h0Zm7.59-1.41l9.9-.68-8.5,5.19s1.22-3.17-1.4-4.52h0Zm57.83-15.17c-22.54,11.34-21.71,6.74-46.24,12.56-5.45,.13-10.92-.18-16.33,.39-5.66,.6-10.1,3.54-9.65,11.25,.34,5.85,1.45,12.11-1.25,17.67-3.5,7.21-11.1,11.36-21.56,12.38-9.14,.9-18.28,1.93-27.45,2.5-2.35,.15-4.69-.24-7.04-.35-18.2-1.58-36.39-3.16-54.59-4.74-.43,1.26-.85,2.51-1.28,3.76,3.65,.47,7.3,.94,10.94,1.41-.21,.5-.42,1-.63,1.49-3.46-.51-6.93-1.02-10.39-1.53-.35,.72-.7,1.45-1.06,2.17,4,.32,8,.65,12.01,.97-.3,.39-.6,.78-.9,1.17-3.56-.36-7.12-.72-10.67-1.08-.41,1.05-.82,2.11-1.22,3.17,3.93,.28,7.85,.55,11.78,.83-.02,.46-.05,.91-.08,1.37-3.87-.03-7.74-.06-11.61-.09-.58,.58-1.15,1.16-1.73,1.74,4.51,.02,9.03,.03,13.54,.05-.13,.55-.27,1.09-.4,1.64-4.37,.02-8.75,.03-13.13,.05-.5,1.21-1,2.42-1.5,3.62,24.31-2.17,48.69-3.68,72.92-6.53,14.02-1.65,29.47-2.77,42.97-12.56,6.57-4.77,7.45-13.9,11.41-25.75,2.21-6.6,10.51-8.52,17.91-10.59,24-7.57,22.5-2.68,44.29-13.48,0,0,23.49-14.84,.95-3.5h0Zm-68.22,30.84c-1.52,6.82-4.31,17.8-13.64,22.24-14.06,6.68-30.98,5.89-43.07,6.1-.1,2.47-.46,2.67-.36,4,13.83-1.48,31.67-1.41,44.85-8.87,7.55-4.28,10.67-11.1,12.23-23.47Z"/></svg>