<svg viewBox="0 0 40 41.26" xmlns="http://www.w3.org/2000/svg"><g fill="#e4e6eb"><path d="m.5 7.27.65 27.11a3.91 3.91 0 0 0 4.06 3.76h1.35a3.23 3.23 0 0 0 1.1.45l-3 .06a4 4 0 0 1 -4.02-3.9l-.64-27.93a4 4 0 0 1 3.88-4.06l5.72-.13a2.91 2.91 0 0 0 -.15.58l-5.07.12a3.91 3.91 0 0 0 -3.88 3.94z"/><path d="m37.24 3.18-23.24-3.18a3.17 3.17 0 0 0 -3.58 2.73l-4.27 31.77a3.19 3.19 0 0 0 2.73 3.58l23.2 3.15a3.19 3.19 0 0 0 3.58-2.73l4.34-31.74a3.19 3.19 0 0 0 -2.76-3.58zm-6.91 20.94-6.1-.91-.9 6.1-2.75-.41.9-6.1-6.1-.9.41-2.75 6.1.9.9-6.1 2.75.41-.9 6.1 6.1.9z"/></g></svg>